/* XPM */
static char *a3a47c4af4554253c79866d10eb50d9ehzFUMkmRdN1AtJwH[] = {
/* columns rows colors chars-per-pixel */
"32 32 24 1 ",
"  c #1B1300",
". c #1E3804",
"X c #402C06",
"o c #4B3509",
"O c #5B3B1F",
"+ c #28430C",
"@ c #304E11",
"# c #5B4211",
"$ c #70541D",
"% c #56720C",
"& c #48641C",
"* c #7A5C21",
"= c #537D21",
"- c #547D21",
"; c #8D6921",
": c #85682F",
"> c #578230",
", c #7EA831",
"< c #9A8A3F",
"1 c #AB8E4E",
"2 c #AE9F5B",
"3 c #CBBE7B",
"4 c #9CDB43",
"5 c #D6F264",
/* pixels */
"44444444444,444,444,444444444444",
"4444444444,,&>,,%>,%>4&&44444444",
"4444444&&,,&,-%>--&>>%,444444444",
"44444444,--%%@&@,@,%-,>&45455444",
"44455&4-@..+&++&%&%=@@=,>4444444",
"44444&&&&=,,=--.+==,=,=&%>,44444",
"444444&--%--&=@&@&.++@&>,%444444",
"44444,,@++.@+++.@++@@&=%%%>44444",
"44444&%,@@+,&=,@@%&@,%,%-@&&,444",
"444&&&@@@+++-=%,-%@.--@@-@>@4444",
"4444%@++@@@@%>@.++@-%@-@@-,&4444",
"44&&&-%-+,%@@@>@@@++@@..&++@,444",
"444&%--.@&,@>>@=%,@-=%,,-,@@&,44",
"44,,&+.+&--@@@-,,&@@,--.+++@.444",
"444,,-@@+.+,:,%+@:@%@@&@@@@=,,44",
"44--@.@++@@+O &+@3&= :%%:+@,-%44",
"4-&@@,& &@:@1% o &, 3 , o.@@++44",
"4444&&%&: 3 @:, .++,:+ o +@&44@4",
"444444& 13.@ 1:o .++o@o..@.@@444",
"44444444 O@ 1 O oX @ O < 4444444",
"44444444@X o:o@O o:@o :X@4444444",
"4444444444*3 44 < 5o  X 44444444",
"44444444444 3O4# :O2;X 444444444",
"444444444444* o : 2 X 4444444444",
"444454454444 * # # X 44444444444",
"4444454444444 *3$  X444444444444",
"44444554444444 : 3; 444444444444",
"4444444444444 # 2 X4444444554444",
"444444444444445# :X 444445454444",
"44444445444444 o< X4444444444444",
"444444444444444#*:44444444444444",
"44444444444444444444444444444444"
};
