/* XPM */
static char *result[] = {
/* columns rows colors chars-per-pixel */
"32 32 106 2 ",
"   c #00050A",
".  c #020A0C",
"X  c #0B0E0B",
"o  c #140F0B",
"O  c #14100A",
"+  c #191209",
"@  c #2E1606",
"#  c #20160B",
"$  c #22190E",
"%  c #29180A",
"&  c #311907",
"*  c #3A1E09",
"=  c #3C220B",
"-  c #3B2D0D",
";  c #3D320E",
":  c #42240B",
">  c #45280D",
",  c #4C2B0E",
"<  c #512D0F",
"1  c #59320F",
"2  c #452E14",
"3  c #4B2E13",
"4  c #542F10",
"5  c #423510",
"6  c #433811",
"7  c #563112",
"8  c #5C3412",
"9  c #603713",
"0  c #633A15",
"q  c #6B3E15",
"w  c #464314",
"e  c #484414",
"r  c #4C4D17",
"t  c #594915",
"y  c #525219",
"u  c #595118",
"i  c #535B1B",
"p  c #6F4216",
"a  c #624A14",
"s  c #644718",
"d  c #724317",
"f  c #7A4817",
"g  c #744419",
"h  c #7A4718",
"j  c #774C1E",
"k  c #7D4A1A",
"l  c #69551A",
"z  c #6F5A1B",
"x  c #78581B",
"c  c #56631E",
"v  c #5A671F",
"b  c #66671F",
"n  c #666C1F",
"m  c #5C6B20",
"M  c #607222",
"N  c #657C25",
"B  c #7C7E26",
"V  c #824D1A",
"C  c #85501D",
"Z  c #8C531D",
"A  c #92571E",
"S  c #95591E",
"D  c #9A5C1F",
"F  c #85611F",
"G  c #8A5721",
"H  c #955B20",
"J  c #9B5D20",
"K  c #9F6020",
"L  c #A46322",
"P  c #A96724",
"I  c #AC6924",
"U  c #AE6D28",
"Y  c #B26D26",
"T  c #B67229",
"R  c #BA752B",
"E  c #BD792D",
"W  c #C0772A",
"Q  c #C47C2D",
"!  c #C97E2E",
"~  c #6F8729",
"^  c #6F8B2A",
"/  c #728327",
"(  c #728B2A",
")  c #7CA332",
"_  c #82AE35",
"`  c #85B437",
"'  c #88B738",
"]  c #8BBE3A",
"[  c #CE812F",
"{  c #CB8332",
"}  c #CD8835",
"|  c #D48632",
" . c #D38B35",
".. c #DA8B34",
"X. c #D48C38",
"o. c #DC943C",
"O. c #E1953B",
"+. c #8DC13B",
"@. c #90C73D",
"#. c #94CD3F",
"$. c #94D03F",
"%. c #96D140",
"&. c #98D541",
"*. c #9CDB43",
"=. c #D4EF63",
"-. c #D6F264",
/* pixels */
"*.*.*.*.*.*.*.*.*.*.*.*.*.*.*.*.*.*.*.*.*.*.*.*.*.*.*.*.*.*.*.*.",
"*.*.*.*.*.*.*.*.*.*.*.*.*.*.*.*.*.*.*.*.*.*.*.*.*.*.*.*.*.*.*.*.",
"*.*.*.*.*.*.*.*.*.*.*.*.*.*.*.*.*.*.*.*.*.*.*.*.*.*.*.*.*.*.*.*.",
"*.*.*.*.*.*.*.*.*.*.*.*.*.*.*.-.-.*.*.*.*.*.*.*.*.-.*.-.-.*.*.*.",
"*.*.*.-.-.*.*.*.*.*.*.*.*.*.*.*.-.-.*.*.*.*.*.*.*.*.*.*.*.*.*.*.",
"*.*.*.*.*.*.*.*.*.*.*.*.*.*.*.*.*.*.*.*.*.*.*.*.*.*.*.*.*.*.*.*.",
"*.*.*.*.*.*.*.*.*.*.*.*.*.*.*.*.%.$.*.*.*.*.*.*.*.*.*.*.*.*.*.*.",
"*.*.*.*.*.*.*.*.*.*.*.%.) ~ l z s t n $.*.*.*.*.*.*.*.*.*.*.*.*.",
"*.*.*.*.*.*.*.&.*.#.B F L R X.o.{ E L x ( &.*.*.*.*.*.*.*.*.*.*.",
"*.*.*.*.*.*.*.*.) t L ! O.} } } { o. .Q f e / #.*.-.*.*.*.*.*.*.",
"*.*.*.*.*.*.*.^ p I Q R L H k U U P L E Y P L b *.*.*.*.*.*.*.*.",
"*.*.*.*.*.*.` a L { [ V h Z k k A g k J R .. .J l @.*.*.*.*.*.*.",
"*.*.*.*.*.*.u I } T C Z k 8 = + # 2 0 V V U X.Q D v *.*.*.*.*.*.",
"*.*.*.*.*.( k E [ D g k $ .   .     . = h V Q P f 3 ) *.*.*.*.*.",
"*.*.*.*.*.; k R { Z p , . . X O O X . . - q R R p = v *.*.*.*.*.",
"*.*.*.*.( , g R o.A < X . O + + + O + . . 1 R R k < = ` *.*.*.*.",
"*.*.*.+.= q L L { E % . X X .   . . X X   3 W P J k = r *.*.*.*.",
"*.*.*.) = 0 J A Y ! t   . . . . . . . .   G Q I k 7 , & _ *.&.*.",
"*.*.*._ @ , 8 g L T | 8 X             o k | T P V * > * _ *.*.*.",
"*.*.*.$.; = = f L T R { I g 2 , 2 2 j E ..L S L Z < & r *.*.*.*.",
"*.*.*.*.) ; 7 A J h h ! ! W ! | ..{ Q Q Y L 8 8 q > c %.&.*.*.*.",
"*.*.*.&.&.w 7 j q 7 9 ! I L I W Q T Y J A V 8 * 8 , m *.*.*.*.*.",
"*.*.*.*.*.] 3 , : : q G A P h D I C K H < q q , 2 y ' *.*.*.*.*.",
"*.*.*.*.*.*.%.N - : q 4 V Z 0 g H q d Z 1 : : 5 ` *.*.*.*.*.*.*.",
"*.*.*.*.-.*.*.-.@.y * @ , , & , 8 = : 9 > & N *.*.*.*.*.*.*.*.*.",
"*.*.*.*.*.-.*.*.*.*._ _ e e ) i - 6 N 5 M ' *.*.*.*.*.*.*.*.*.*.",
"*.*.*.*.*.-.-.*.*.*.*.*.*.*.*.*.$.*.*.$.*.*.*.*.*.*.*.*.*.*.*.*.",
"*.*.*.*.*.*.*.*.*.*.*.*.*.*.=.*.*.*.*.*.*.*.*.*.*.*.-.-.*.*.*.*.",
"*.*.*.*.*.*.*.*.*.*.*.*.*.*.-.-.*.*.*.*.*.*.*.*.*.-.*.-.*.*.*.*.",
"*.*.*.*.*.*.*.-.*.*.*.*.*.*.*.*.*.*.*.*.*.*.*.*.*.*.*.*.*.*.*.*.",
"*.*.*.*.*.*.*.*.*.*.*.*.*.*.*.*.*.*.*.*.*.*.*.*.*.*.*.*.*.*.*.*.",
"*.*.*.*.*.*.*.*.*.*.*.*.*.*.*.*.*.*.*.*.*.*.*.*.*.*.*.*.*.*.*.*."
};
