/* XPM */
static char *result[] = {
/* columns rows colors chars-per-pixel */
"32 32 25 1 ",
"  c black",
". c #210C07",
"X c #752B1A",
"o c #34374B",
"O c #292969",
"+ c #5E6275",
"@ c #5E627B",
"# c #843B00",
"$ c #9C5E06",
"% c #A25500",
"& c #AB5500",
"* c #C37F0C",
"= c #815E6B",
"- c #DE8216",
"; c #DEA016",
": c #EDB028",
"> c #FFC83E",
", c #FFDE3D",
"< c #FFEF3E",
"1 c #9CDB43",
"2 c #D6F264",
"3 c #FFF36D",
"4 c #9498B1",
"5 c #C6C6C6",
"6 c white",
/* pixels */
"11111111111111111111111111111111",
"11111111111   111111111111111111",
"11111111  o444o  111111111111111",
"1111111o555oo+455o  111112122111",
"111221o54oo555oo+455o  111111111",
"111111 5o11O@4555+oo455o11111111",
"111111 5 11O4o  o555++45 1111111",
"111111o5o11 5O111  o5o 5o1111111",
"111111o5o11o5O1.... 5 1o5o111111",
"11111 5o111o5.#>>,,O5O. 5o111111",
"11111 5o111.#>::;**O4O,#O4o11111",
"11111 5o1.#>::::;*O5O*;$O5O..111",
"11111 5.#>;:::::;*O5O*;;O5O>,..1",
"11111.#>:;;:::**$$O5O*;;$O4O&>.1",
"111.#>;::;;:*$;;;;O5O$$;;O5O,,.1",
"1..>;;;::;*$;;;*;*O5O;;#&#4o,,.1",
"1.3&##;:*$;;;*;$;O5O;#&>,;==,>.1",
"1.>>,3&##;;*;$;$;O5O&>,,,,,,>X11",
"1.>>>>>,3&##;$;;;O5O,,,,,,>--.11",
"1.>>>>>>>>,3&###&O5=,,,,>--,%.11",
"11X->>>>>>>>>,3,,==;,,>--,#,;.11",
"11.##->>>>>>>>6,,,,,>--,#,%,X111",
"11.;>%##->>>>>6,,,>--,#,%,;,.111",
"11.;>->>>##->>3,>--,#,%,;,3,.111",
"111X>->>>>><###%-,#,%,;,3,;,.111",
"111.>%->>>><%>3,%,%,;,3,;,X.1111",
"111.>%>;%-><->6,%,;,3,;,X.111111",
"111.>->>%>;-%>3,;,3,;,X.11221111",
"1111..X>->>%>>3,3,;,X.1112121111",
"1111111..X>->>3,;,X.111111111111",
"1111111111..X>3,X.11111111111111",
"1111111111111...1111111111111111"
};
