/* XPM */
static char *result[] = {
/* columns rows colors chars-per-pixel */
"32 32 30 1 ",
"  c black",
". c #252E3C",
"X c #253348",
"o c #34374B",
"O c #292969",
"+ c #424444",
"@ c #404C5D",
"# c #4F5A6C",
"$ c #5E6275",
"% c #5E627B",
"& c #61696F",
"* c #676F71",
"= c #6B737D",
"- c #6C727C",
"; c #6D7484",
": c #7C8390",
"> c #8A919F",
", c #8A949F",
"< c #969BA8",
"1 c #999EAE",
"2 c #9498B1",
"3 c #A7ABBC",
"4 c #A8AEBC",
"5 c #BABDC6",
"6 c #BDBECD",
"7 c #C6C6C6",
"8 c gray87",
"9 c #E7E7E7",
"0 c white",
"q c None",
/* pixels */
"qqqqqqqqqqqqqqqqqqqqqqqqqqqqqqqq",
"qqqqqqqqqqq   qqqqqqqqqqqqqqqqqq",
"qqqqqqqq  o222o  qqqqqqqqqqqqqqq",
"qqqqqqqo777oo$277o  qqqqqqqqqqqq",
"qqqqqqo72oO777oO$277o  qqqqqqqqq",
"qqqqqq 7OqqO%2777$oo277oqqqqqqqq",
"qqqqqq 7 qqO2o  o777$$27 qqqqqqq",
"qqqqqqO7Oqq 7Oqqq  o7o 7oqqqqqqq",
"qqqqqqo7oqq 7 q  oo 0 qo0oqqqqqq",
"qqqqq 7oqqq 7o@0533o7o+ 7oqqqqqq",
"qqqqq 7Oqqq @055>;;o2o3&o2oqqqqq",
"qqqqq 7Oq @05555>;o7o:>-o0o  qqq",
"qqqqq 7o 4>55555>;o0o:>>O7O43  q",
"qqqqq @05>>555=@@@o0o:>>-O2O.4 q",
"qqq @6>55>>5=@>>>>o7o@@>>O7O87 q",
"q  6>>>55>=@>>>=>=O7O>>..$2o77 q",
"q 6..@>5=@>>>=>@>o7o>..>8>$@7> q",
"q 4467..@>>=>@>@>o7o.>877777>*qq",
"q 4411167..@>@>>>O7o877777>@X qq",
"q ,411144167@....O7@7777>@X>= qq",
"qqO,1114411446874@$477>@X>X7> qq",
"qq O.#14411444077777>@X>X7=7Oqqq",
"qq >4...#114448777>@X>X7=7>7 qqq",
"qq >4.447..#4407>@X>X7=7>797 qqq",
"qqqO4#444<<7....X>X7=7>797>7 qqq",
"qqq 4@=44<<7=48>X7=7>797>7O qqqq",
"qqq 4=4@@=<7,407=7>797>7O qqqqqq",
"qqq 4,44=4@@=407>797>7O qqqqqqqq",
"qqqq  O4,44=440797>7O qqqqqqqqqq",
"qqqqqqq  O4,4407>7O qqqqqqqqqqqq",
"qqqqqqqqqq  O487O qqqqqqqqqqqqqq",
"qqqqqqqqqqqqq   qqqqqqqqqqqqqqqq"
};
