/* XPM */
static char *result[] = {
/* columns rows colors chars-per-pixel */
"32 32 79 1 ",
"  c black",
". c #020101",
"X c #0C0B00",
"o c #151412",
"O c #161412",
"+ c #171614",
"@ c #181614",
"# c #191715",
"$ c #1D1B19",
"% c #1F1B18",
"& c #1E1B19",
"* c #201E1C",
"= c #211E1C",
"- c #331315",
"; c #25211F",
": c #331F21",
"> c #372123",
", c #392224",
"< c #3A2224",
"1 c #3B2225",
"2 c #3D2326",
"3 c #3F2427",
"4 c #660000",
"5 c #412528",
"6 c #442729",
"7 c #46282A",
"8 c #47282B",
"9 c #49292C",
"0 c #4B2A2D",
"q c #4C2A2D",
"w c #482E30",
"e c #492E30",
"r c #533033",
"t c #47403E",
"y c #574D4B",
"u c #584E4C",
"i c #5D5250",
"p c #614042",
"a c #624042",
"s c #634143",
"d c #605553",
"f c #8D2727",
"g c #C0170C",
"h c #C1180C",
"j c #C1190D",
"k c #C21B0E",
"l c #D04E28",
"z c #D3572C",
"x c #D76635",
"c c #885659",
"v c #93585B",
"b c #9A5E62",
"n c #A16568",
"m c #A3666A",
"M c #A56C70",
"N c #AC6E72",
"B c #E75B4A",
"V c #C36060",
"C c #ED9D3C",
"Z c #F1BB5D",
"A c #9CDB43",
"S c #D6F264",
"D c #FFEC76",
"F c #C37E83",
"G c #968A84",
"H c #978B85",
"J c #BAA7A3",
"K c #C58084",
"L c #D58D93",
"P c #E19691",
"I c #C0B5AC",
"U c #EFA4AA",
"Y c #FFB5AC",
"T c #FFBDC2",
"R c #FFBDC3",
"E c #FFBFC4",
"W c #FFC1C7",
"Q c #E2E3DE",
"! c #E3E4DF",
/* pixels */
"AAAAAAAAAAAAAAAAAAAAAAAAAAAAAAAA",
"AAAAAAAAAAAAAAAAAAAAAAAAAAAAAAAA",
"AAAAAAAAAAAAAAAAAAAAAAAAAA   AAA",
"AAAAAAAAAAAAAAASSAAAAAAAA V44 AA",
"AAASSAAAAAAAAAAASSAAAAAA4ggg4 AA",
"AAAAAAAAAAAAAAAAAAAAAAA4gBggV AA",
"AAAAAAAAAAAAAAAAAAAAAA gYg44 AAA",
"AAAAAAAAAAAAAAAAAAAAA gBg44 AAAA",
"AAAAAAAAAAAAAAAA      gg44 AAAAA",
"AAAAAAAAAAAAAA oo--XX f44 AAAAAA",
"AAAAAAAAAAAAA #&7XXX-o   AAAAAAA",
"AAAAAAASASAA =iUv8OXX-o AAAAAAAA",
"AAAAAAAASAA *dELK3oXXX- AAAAAAAA",
"AAAAAAAAAA  tRnFMsoXXX- AAAAAAAA",
"AAAAAAAAA QHcb9,apoXXX- AAAAAAAA",
"AAAAAAAA gPQ 5>w::woXXo SAAAAAAA",
"AAAAAAA zggPG:w::oowwooSSSAAAAAA",
"AAAAAA zDzggQ ::oooo:o AAAAAAAAA",
"AAAAA JPgDjgPQGoooo:o AAAAAAAAAA",
"AAAA +.!gCZljPQI o:o AAAAAAAAAAA",
"AAA $y.JPjzxkQIIIG  AAAAAAAAAAAA",
"AA @uWm !PhhQIIIIQ SAAAAAAAAAAAA",
"AA ;TN0< QPQIIIIQ AAAAAAAAAAAAAA",
"AA %rq2w: QIIIIQ AAAAAAAAAAAAAAA",
"AAA 61e::o GIIQ AAAAAAAAAAAAAAAA",
"AAA o:::oooo   AAAAAAAAAAAAAAAAA",
"AAAA o:oooo:o AAAAAAAAAAAAAAAAAA",
"AAAAA oooo:o ASAAAAAAAAAAASSAAAA",
"AAAAAA  o:o AASSAAAAAAAAASASAAAA",
"AAAAAAAS   AAAAAAAAAAAAAAAAAAAAA",
"AAAAAAAAAAAAAAAAAAAAAAAAAAAAAAAA",
"AAAAAAAAAAAAAAAAAAAAAAAAAAAAAAAA"
};
