/* XPM */
static char *result[] = {
/* columns rows colors chars-per-pixel */
"32 32 19 1 ",
"  c black",
". c #241D0D",
"X c #714333",
"o c #82634B",
"O c #8A7357",
"+ c #928263",
"@ c #9CDB43",
"# c #D6F264",
"$ c #A67596",
"% c gray73",
"& c #CACACA",
"* c #CECECE",
"= c gray84",
"- c gray85",
"; c #DDDDDD",
": c #E1E1E1",
"> c gray89",
", c #E7E7E7",
"< c #F1EEEE",
/* pixels */
"@@@@@@@@@@@@@@@@@@@@@@@@@@@@@@@@",
"@@@@@@@@@@@@@@@@@@@@@@@@@@@@@@@@",
"@@@@@@@@@@@@@@@@@@@@@@@@@@@@@@@@",
"@@@@@@@@@@@@@@  #@@@@@@@@#@##@@@",
"@@@##@@@@@@@@ ,, #@@@@@@@@@@@@@@",
"@@@@@@@@@@@@@ ,, @@@@@@@@@@@@@@@",
"@@@@@@@@@@@.. ,, ..@@@@@@@@@@@@@",
"@@@@@@@@@..++ ,, ++..@@@@@@@@@@@",
"@@@@@@@..o+++ ,, +++o..@@@@@@@@@",
"@@@@@..O.Xo++++++++oX.O..#@@@@@@",
"@@@@.+OO.XXXXXXXXXXXX.OO+.@@@@@@",
"@@@@.+++OoXXXXXXXXXXo++++.@@@@@@",
"@@@@@.++++++++++++++++++.@@@@@@@",
"@@@@@@...O++++++++++O...@@@@@@@@",
"@@@@@@@@..............@@@@@@@@@@",
"@@@@@@@@ **,,,,,,,,,, @@#@@@@@@@",
"@@@@@@@# *,,,,,,,, ,, @###@@@@@@",
"@@@@@@@@ *,,,,,,,, ,, @@@@@@@@@@",
"@@@@@@@@ **:,,,,,, ,,$ @@@@@@@@@",
"@@@@@@@@ ***:,,,,,,,,, @@@@@@@@@",
"@@@@@@@@@ ***:::,,,,,, @@@@@@@@@",
"@@@@@@@@@@ ********,, @@@@@@@@@@",
"@@@@@@@@@@@  %%%%    @@@@@@@@@@@",
"@@@@@@@@@@@@ ;;== @@@@@@@@@@@@@@",
"@@@@#@@#@ @ ,,,>:: @@@@@@@@@@@@@",
"@@@@@#@@ < ,,,,,>: @@@@@@@@@@@@@",
"@@@@@##@ & ,-,,,,: @@@@@@@@@@@@@",
"@@@@@@@@@  ,-,,,,: @@@@@@@##@@@@",
"@@@@@@@@@@@ -,,,, @@@@@@@#@#@@@@",
"@@@@@@@#@@@@ ,,,, @@@@@@@@@@@@@@",
"@@@@@@@@@@@@@    @@@@@@@@@@@@@@@",
"@@@@@@@@@@@@@@@@@@@@@@@@@@@@@@@@"
};
