/* XPM */
static char *result[] = {
/* columns rows colors chars-per-pixel */
"32 32 19 1 ",
"  c black",
". c #241D0D",
"X c #222124",
"o c #714333",
"O c #82634B",
"+ c #8A7357",
"@ c #928263",
"# c #9CDB43",
"$ c #D6F264",
"% c #A67596",
"& c #A99D86",
"* c #D6D5DF",
"= c gray89",
"- c #E7E7E7",
"; c #E2E2E8",
": c #E4E4E8",
"> c #ECECED",
", c #EDEDEE",
"< c #F0E5ED",
/* pixels */
"################################",
"################################",
"############XX####XX############",
"###########X--X$$X--X####$#$$###",
"###$$######X--X#$X--X###########",
"###########X--X..X--X###########",
"##########.X--X@@X--X.##########",
"########..OX-&@@@@&-XO..########",
"######..+.oO@@@@@@@@Oo.+..######",
"#####.@++.oooooooooooo.++@.#####",
"#####.@@@+OooooooooooO@@@@.#####",
"######.@@@@@@@@@@@@@@@@@@.######",
"#######...+@@@@@@@@@@+...#######",
"########X-............-X########",
"#######X;--------------;X#######",
"#######X;----X-----X---;X#######",
"#######X*----X-----X---*X$######",
"#######X*----X-----X---*X#######",
"#######X*---<<--%--<<--*X#######",
"########X*--<<-X-X-<<-* ########",
"#########X:>-------,>: #########",
"##########XXX=----=XXX##########",
"###########X::======X###########",
"##########X----------X##########",
"####$##$##X-*------*-X##########",
"#####$###X--*------*--X#########",
"#####$$##X--*------*--X#########",
"#########X--*------*-X####$$####",
"##########XX--------X####$#$####",
"#######$###X-XXXXX*-X###########",
"###########XX#####X-X###########",
"###################XX###########"
};
