/* XPM */
static char *result[] = {
/* columns rows colors chars-per-pixel */
"32 32 22 1 ",
"  c black",
". c #241D0D",
"X c #222124",
"o c #714333",
"O c #82634B",
"+ c #8A7357",
"@ c #928263",
"# c #9CDB43",
"$ c #D6F264",
"% c #A99D86",
"& c #C4C3CE",
"* c #C8C7D2",
"= c #CFCEDB",
"- c #D6D5DF",
"; c #D7D6E3",
": c gray89",
"> c #E7E7E7",
", c #E2E2E8",
"< c #E2E1EB",
"1 c #E4E4E8",
"2 c #E6E5EF",
"3 c #F0EFF3",
/* pixels */
"################################",
"################################",
"############XX####XX############",
"###########X>>X$$X>>X####$#$$###",
"###$$######X>>X#$X>>X###########",
"###########X>>X..X>>X###########",
"##########.X>>X@@X>>X.##########",
"########..OX>%@@@@%>XO..########",
"######..+.oO@@@@@@@@Oo.+..######",
"#####.@++.oooooooooooo.++@.#####",
"#####.@@@+OooooooooooO@@@@.#####",
"######.@@@@@@@@@@@@@@@@@@.######",
"#######...+@@@@@@@@@@+...#######",
"########X>............>X########",
"#######X,>>>>>>>>>>>>>>,X#######",
"#######X,>>>>>>>>>>>>>>,X#######",
"#######X->>>>>>>>>>>>>>-X$######",
"#######X-<>>>>>>>>>>>><-X#######",
"#######X-<<>>>>>>>>>><<-X#######",
"########X--<<<<<<<<<<-- ########",
"#########X------------ #########",
"##########XXX******XXX##########",
"###########X11::::::X###########",
"##########X>>>>>>>>>>X##########",
"####$##$##X<->>>>>>-<X##########",
"#####$###X><->2=;2>-<>X#########",
"#####$$##X><->&-3;>-<>X#########",
"##########X<->&--&>-<>X###$$####",
"###########X>>2&&2>>XX###$#$####",
"#######$###X>-XXXXX>X###########",
"###########X>X#####XX###########",
"###########XX###################"
};
