/* XPM */
static char *result[] = {
/* columns rows colors chars-per-pixel */
"32 32 20 1 ",
"  c black",
". c #241D0D",
"X c #222124",
"o c #714333",
"O c #82634B",
"+ c #8A7357",
"@ c #928263",
"# c #9CDB43",
"$ c #D6F264",
"% c #A99D86",
"& c #C4C3CE",
"* c #C8C7D2",
"= c #CFCEDB",
"- c #D6D5DF",
"; c #D7D6E3",
": c #E7E7E7",
"> c #E2E2E8",
", c #E2E1EB",
"< c #E6E5EF",
"1 c #F0EFF3",
/* pixels */
"################################",
"################################",
"################################",
"############XX#$$#XX#####$#$$###",
"###$$######X::X#$X::X###########",
"###########X::X##X::X###########",
"###########X::X..X::X###########",
"##########.X::X@@X::X.##########",
"########..OX:%@@@@%:XO..########",
"######..+.oO@@@@@@@@Oo.+..######",
"#####.@++.oooooooooooo.++@.#####",
"#####.@@@+OooooooooooO@@@@.#####",
"######.@@@@@@@@@@@@@@@@@@.######",
"#######...+@@@@@@@@@@+...#######",
"########X:............:X########",
"#######X>::::::::::::::>X#######",
"#######X>::::::::::::::>X$######",
"#######X-::::::::::::::-X#######",
"#######X-,::::::::::::,-X#######",
"#######X-,,::::::::::,,-X#######",
"########X--,,,,,,,,,,-- ########",
"#########X------------ #########",
"###########XX******XX###########",
"##########X::::::::::X##########",
"####$##$##X,-::::::-,X##########",
"#####$###X:,-:<=;<:-,:X#########",
"#####$$##X:,-:&-1;:-,:X#########",
"#########X:,-:&--&:-,X####$$####",
"##########XX::<&&<::X####$#$####",
"#######$###X:-XXXX-:X###########",
"###########X:X####X:X###########",
"###########XX######XX###########"
};
